<svg xmlns="http://www.w3.org/2000/svg" viewBox="0 0 48 48"><path d="M17.68,35a1,1,0,0,1-1-.83L16.15,31H42a1,1,0,0,0,1-.84l3-18a1,1,0,0,0-.23-.81A1,1,0,0,0,45,11H41.41L34.67,4.26a1,1,0,0,0-1.41,0L30,7.55,27.67,5.26a1,1,0,0,0-1.41,0L20.51,11H12.7L12,6.83A1,1,0,0,0,11,6H2V8h8.16l4.57,26.51A3,3,0,0,0,17.68,37H46V35ZM34,6.38,38.59,11H33.41l-2-2Zm-7,1L30.59,11H23.34ZM13.05,13H43.82L41.15,29H15.81Zm9,25a4,4,0,1,0,4,4A4,4,0,0,0,22,38Zm0,6a2,2,0,1,1,2-2A2,2,0,0,1,22,44Zm16-6a4,4,0,1,0,4,4A4,4,0,0,0,38,38Zm0,6a2,2,0,1,1,2-2A2,2,0,0,1,38,44ZM23,26h4a1,1,0,0,0,1-1V17a1,1,0,0,0-1-1H23a1,1,0,0,0-1,1v8A1,1,0,0,0,23,26Zm1-8h2v6H24Zm7,8h4a1,1,0,0,0,1-1V17a1,1,0,0,0-1-1H31a1,1,0,0,0-1,1v8A1,1,0,0,0,31,26Zm1-8h2v6H32Z" data-name="45 Online Shopping, Buy, Cart,"/></svg>