<svg id="Capa_1" enable-background="new 0 0 512 512" height="512" viewBox="0 0 512 512" width="512" xmlns="http://www.w3.org/2000/svg"><g><path d="m497 181h-5.185c12.724-18.504 20.185-40.895 20.185-65 0-63.411-51.589-115-115-115s-115 51.589-115 115c0 24.104 7.461 46.496 20.185 65h-182.478l-10.4-62.398c-3.631-21.788-22.299-37.602-44.388-37.602h-49.919c-8.284 0-15 6.716-15 15s6.716 15 15 15h49.919c7.363 0 13.585 5.271 14.796 12.534l42.285 253.707v28.759c0 21.651 15.371 39.775 35.772 44.045-5.169 6.428-8.272 14.584-8.272 23.455 0 20.677 16.823 37.5 37.5 37.5s37.5-16.823 37.5-37.5c0-8.436-2.801-16.228-7.521-22.5h140.041c-4.719 6.272-7.52 14.064-7.52 22.5 0 20.677 16.822 37.5 37.5 37.5s37.5-16.823 37.5-37.5c0-8.436-2.801-16.228-7.52-22.5h20.02c8.284 0 15-6.716 15-15s-6.716-15-15-15h-270c-8.271 0-15-6.729-15-15v-15h285c6.456 0 12.188-4.131 14.23-10.256l60-180c1.524-4.575.758-9.603-2.062-13.514-2.818-3.912-7.347-6.23-12.168-6.23zm-153.033-70.611c5.857-5.858 15.355-5.858 21.213 0l17.678 17.678 45.963-45.962c5.858-5.858 15.356-5.857 21.213 0 5.858 5.858 5.858 15.355 0 21.213l-56.569 56.568c-2.929 2.929-6.769 4.394-10.606 4.394-3.839 0-7.678-1.464-10.606-4.394l-28.284-28.284c-5.861-5.858-5.861-15.355-.002-21.213zm-146.967 250.611h-47.293l-5-30h52.293zm0-60h-57.293l-5-30h62.293zm0-60h-67.293l-5-30h72.293zm75 120h-45v-30h45zm0-60h-45v-30h45zm0-60h-45v-30h45zm75 120h-45v-30h45zm0-60h-45v-30h45zm-45-60v-30h30.267c4.676 3.197 9.598 6.06 14.733 8.549v21.451zm124.188 120h-49.188v-30h59.188zm20-60h-69.188v-30h79.188zm20-60h-89.188v-11.745c6.497 1.144 13.18 1.745 20 1.745 23.988 0 46.281-7.387 64.733-20h14.456z"/></g></svg>